<svg width="36" height="36" viewBox="0 0 36 36" fill="none" xmlns="http://www.w3.org/2000/svg">
<path d="M6.4395 27.4396L3.7665 30.1126C3.5205 30.0466 3.267 30.0001 3 30.0001C1.3455 30.0001 0 31.3456 0 33.0001C0 34.6546 1.3455 36.0001 3 36.0001C4.6545 36.0001 6 34.6546 6 33.0001C6 32.7331 5.9535 32.4796 5.8875 32.2336L8.5605 29.5606C9.147 28.9741 9.147 28.0261 8.5605 27.4396C7.974 26.8531 7.026 26.8531 6.4395 27.4396Z" fill="#0054A9"/>
<path d="M18 0C16.3455 0 15 1.3455 15 3C15 4.1055 15.6075 5.0625 16.5 5.583V10.5C16.5 11.328 17.172 12 18 12C18.828 12 19.5 11.328 19.5 10.5V5.583C20.3925 5.0625 21 4.1055 21 3C21 1.3455 19.6545 0 18 0Z" fill="#0054A9"/>
<path d="M32.9999 30.0001C32.7329 30.0001 32.4794 30.0466 32.2334 30.1126L29.5604 27.4396C28.9739 26.8531 28.0259 26.8531 27.4394 27.4396C26.8529 28.0261 26.8529 28.9741 27.4394 29.5606L30.1124 32.2336C30.0464 32.4796 29.9999 32.7331 29.9999 33.0001C29.9999 34.6546 31.3454 36.0001 32.9999 36.0001C34.6544 36.0001 35.9999 34.6546 35.9999 33.0001C35.9999 31.3456 34.6544 30.0001 32.9999 30.0001Z" fill="#0054A9"/>
<path d="M3 15.225V27.696L4.848 25.848C6.3105 24.3855 8.6895 24.3855 10.1505 25.848C11.6115 27.3105 11.613 29.6895 10.1505 31.1505L8.9295 32.3715L16.5 35.4V20.625L3 15.225Z" fill="#0054A9"/>
<path d="M21.75 7.5V10.5C21.75 12.567 20.067 14.25 18 14.25C15.933 14.25 14.25 12.567 14.25 10.5V7.5L3 12L18 18L33 12L21.75 7.5Z" fill="#0054A9"/>
<path d="M25.848 31.152C24.3855 29.6895 24.3855 27.3105 25.848 25.8495C27.3105 24.3885 29.6895 24.387 31.1505 25.8495L33 27.696V15.225L19.5 20.625V35.4L27.069 32.373L25.848 31.152Z" fill="#0054A9"/>
</svg>
