<svg width="36" height="36" viewBox="0 0 36 36" fill="none" xmlns="http://www.w3.org/2000/svg">
<path d="M1.00541 20.297L3.35462 20.6821C3.72577 22.4809 4.43606 24.1927 5.44753 25.7258L4.05635 27.6674C3.7677 28.0604 3.77266 28.5966 4.06857 28.9842C4.41935 29.413 4.7921 29.8234 5.18521 30.2137C5.58182 30.6109 5.99064 30.977 6.4117 31.3309C6.7995 31.6274 7.33647 31.6324 7.72971 31.3431L9.67009 29.9513C11.2018 30.9634 12.9123 31.6741 14.7102 32.0455L15.0946 34.3965C15.1678 34.8774 15.5516 35.2512 16.0343 35.3118C16.3686 35.3496 16.7055 35.3728 17.0496 35.3899C17.2168 35.3981 17.38 35.3377 17.5016 35.2228C17.6232 35.1079 17.6927 34.9483 17.694 34.7809V29.891C17.6922 29.5613 17.4304 29.2919 17.1009 29.2808C10.9347 28.9611 6.09901 23.8682 6.09901 17.6938C6.09901 11.5193 10.9347 6.42645 17.1009 6.10679C17.4304 6.09563 17.6922 5.82629 17.694 5.49659V0.610867C17.6931 0.443628 17.6241 0.283948 17.5028 0.168734C17.3815 0.0535212 17.2185 -0.00712662 17.0514 0.000668427C16.7085 0.0149003 16.3695 0.0389351 16.0342 0.0726546C15.5514 0.13844 15.1692 0.513725 15.0946 0.995246L14.7101 3.34628C12.9123 3.71814 11.2018 4.42903 9.67003 5.44102L7.72965 4.0486C7.33641 3.7593 6.79944 3.76426 6.41164 4.06083C5.98403 4.41208 5.57467 4.785 5.18516 5.17806C4.78908 5.56557 4.41622 5.97611 4.06851 6.40755C3.77136 6.79559 3.7664 7.33327 4.05629 7.72674L5.44747 9.66836C4.43624 11.201 3.72595 12.912 3.35456 14.7103L1.00535 15.0947C0.524306 15.1682 0.150557 15.5522 0.090086 16.035C-0.0300287 17.1301 -0.0300287 18.2349 0.090086 19.33C0.144356 19.8208 0.518223 20.2159 1.00541 20.297Z" fill="#0054A9"/>
<path d="M17.1107 8.56152C12.2901 8.86688 8.53662 12.8657 8.53662 17.6959C8.53662 22.5261 12.2902 26.5249 17.1107 26.8303C17.2641 26.8367 17.4134 26.7798 17.5236 26.673C17.6339 26.5661 17.6955 26.4187 17.694 26.2653V9.12654C17.6955 8.973 17.6339 8.82567 17.5236 8.71884C17.4134 8.61201 17.2641 8.55514 17.1107 8.56152Z" fill="#0054A9"/>
<path d="M21.9654 9.15329H18.9146V10.3736H21.9654C22.9752 10.3706 23.793 9.55284 23.796 8.54309V4.76975C24.6365 4.4726 25.1407 3.61307 24.99 2.73436C24.8392 1.85564 24.0774 1.21338 23.1858 1.21338C22.2942 1.21338 21.5323 1.85564 21.3816 2.73436C21.2308 3.61307 21.735 4.4726 22.5756 4.76975V8.54309C22.5756 8.88011 22.3024 9.15329 21.9654 9.15329Z" fill="#0054A9"/>
<path d="M18.9146 12.8146H25.0164C25.3534 12.8146 25.6266 12.5415 25.6266 12.2044C25.6266 11.8674 25.3534 11.5942 25.0164 11.5942H18.9146V12.8146Z" fill="#0054A9"/>
<path d="M18.9146 26.2384H21.9654C22.3024 26.2384 22.5756 26.5116 22.5756 26.8486V30.6219C21.7351 30.9191 21.2309 31.7786 21.3816 32.6573C21.5324 33.5361 22.2942 34.1783 23.1858 34.1783C24.0774 34.1783 24.8393 33.5361 24.99 32.6573C25.1408 31.7786 24.6366 30.9191 23.796 30.6219V26.8486C23.793 25.8388 22.9752 25.0211 21.9655 25.0181H18.9146V26.2384H18.9146Z" fill="#0054A9"/>
<path d="M28.0672 20.1362H18.9146V21.3566H28.0672C28.4043 21.3566 28.6774 21.6298 28.6774 21.9668V25.13C27.8369 25.4271 27.3327 26.2866 27.4834 27.1654C27.6342 28.0441 28.396 28.6863 29.2876 28.6863C30.1792 28.6863 30.9411 28.0441 31.0918 27.1654C31.2426 26.2866 30.7384 25.4271 29.8978 25.13V21.9668C29.8948 20.957 29.077 20.1392 28.0672 20.1362Z" fill="#0054A9"/>
<path d="M34.1691 15.8652C33.3961 15.8684 32.7084 16.3568 32.4508 17.0856H18.9146V18.3059H32.4508C32.7626 19.1813 33.6816 19.6833 34.5867 19.4726C35.4917 19.2619 36.0945 18.4056 35.9877 17.4825C35.8808 16.5595 35.0983 15.8636 34.1691 15.8652Z" fill="#0054A9"/>
<path d="M25.6266 23.1878C25.6266 22.8508 25.3534 22.5776 25.0164 22.5776H18.9146V23.798H25.0164C25.3534 23.798 25.6266 23.5249 25.6266 23.1878Z" fill="#0054A9"/>
<path d="M29.8978 13.4242V10.261C30.7384 9.96381 31.2426 9.10428 31.0918 8.22557C30.9411 7.34685 30.1792 6.70459 29.2876 6.70459C28.3961 6.70459 27.6342 7.34685 27.4834 8.22557C27.3327 9.10428 27.8369 9.96381 28.6774 10.261V13.4242C28.6774 13.7612 28.4043 14.0344 28.0672 14.0344H18.9146V15.2547H28.0672C29.0771 15.2516 29.8948 14.4339 29.8978 13.4242Z" fill="#0054A9"/>
</svg>
