<svg width="18" height="18" viewBox="0 0 18 18" fill="none" xmlns="http://www.w3.org/2000/svg">
<path d="M3.16675 13.9998H6.70008C6.80975 14.0004 6.91847 13.9794 7.02 13.9379C7.12153 13.8965 7.21388 13.8354 7.29175 13.7581L13.0584 7.98312L15.4251 5.66645C15.5032 5.58898 15.5652 5.49682 15.6075 5.39527C15.6498 5.29372 15.6716 5.1848 15.6716 5.07479C15.6716 4.96478 15.6498 4.85586 15.6075 4.75431C15.5652 4.65276 15.5032 4.56059 15.4251 4.48312L11.8917 0.90812C11.8143 0.830013 11.7221 0.768017 11.6206 0.72571C11.519 0.683403 11.4101 0.661621 11.3001 0.661621C11.1901 0.661621 11.0812 0.683403 10.9796 0.72571C10.8781 0.768017 10.7859 0.830013 10.7084 0.90812L8.35841 3.26645L2.57508 9.04145C2.49785 9.11932 2.43674 9.21167 2.39527 9.3132C2.3538 9.41473 2.33278 9.52345 2.33341 9.63312V13.1665C2.33341 13.3875 2.42121 13.5994 2.57749 13.7557C2.73377 13.912 2.94573 13.9998 3.16675 13.9998ZM11.3001 2.67479L13.6584 5.03312L12.4751 6.21645L10.1167 3.85812L11.3001 2.67479ZM4.00008 9.97479L8.94175 5.03312L11.3001 7.39145L6.35841 12.3331H4.00008V9.97479ZM16.5001 15.6665H1.50008C1.27907 15.6665 1.06711 15.7543 0.910826 15.9105C0.754545 16.0668 0.666748 16.2788 0.666748 16.4998C0.666748 16.7208 0.754545 16.9328 0.910826 17.089C1.06711 17.2453 1.27907 17.3331 1.50008 17.3331H16.5001C16.7211 17.3331 16.9331 17.2453 17.0893 17.089C17.2456 16.9328 17.3334 16.7208 17.3334 16.4998C17.3334 16.2788 17.2456 16.0668 17.0893 15.9105C16.9331 15.7543 16.7211 15.6665 16.5001 15.6665Z" fill="white"/>
</svg>
