<svg width="34" height="36" viewBox="0 0 34 36" fill="none" xmlns="http://www.w3.org/2000/svg">
<path d="M27.6537 5.35094C27.516 5.23223 27.3547 5.14396 27.1805 5.09189C27.0062 5.03983 26.823 5.02516 26.6427 5.04883C26.4624 5.07251 26.2891 5.134 26.1343 5.22927C25.9794 5.32455 25.8464 5.45147 25.7439 5.60172C25.5652 5.8576 25.4874 6.17048 25.5254 6.48026C25.5634 6.79004 25.7145 7.07486 25.9497 7.27999C28.1384 9.16438 29.6978 11.6735 30.4185 14.4703C31.1392 17.267 30.9867 20.2173 29.9813 22.9248C28.9759 25.6323 27.166 27.9672 24.7946 29.6157C22.4232 31.2643 19.6041 32.1475 16.716 32.1468H16.073V31.4973C16.0764 31.383 16.0478 31.27 15.9903 31.171C15.9328 31.0721 15.8488 30.9913 15.7477 30.9378C15.6466 30.8842 15.5325 30.8601 15.4184 30.868C15.3043 30.876 15.1946 30.9158 15.102 30.9829L12.4721 32.9184C12.3922 32.9783 12.3274 33.056 12.2827 33.1453C12.2381 33.2345 12.2148 33.333 12.2148 33.4328C12.2148 33.5326 12.2381 33.6311 12.2827 33.7204C12.3274 33.8097 12.3922 33.8873 12.4721 33.9472L15.102 35.8834C15.1946 35.9505 15.3043 35.9903 15.4184 35.9983C15.5325 36.0062 15.6466 35.9821 15.7477 35.9285C15.8488 35.875 15.9328 35.7941 15.9903 35.6952C16.0478 35.5963 16.0764 35.4833 16.073 35.369V34.7189H16.716C20.1254 34.7173 23.4529 33.6737 26.2526 31.7279C29.0523 29.7821 31.1904 27.0271 32.3803 23.8321C33.5703 20.637 33.7553 17.1546 32.9105 13.8515C32.0657 10.5484 30.2315 7.58237 27.6537 5.35094Z" fill="#0054A9"/>
<path d="M18.33 0.116384C18.2373 0.0492756 18.1277 0.0094735 18.0136 0.00149189C17.8995 -0.00648971 17.7854 0.0176687 17.6843 0.071227C17.5832 0.124785 17.4992 0.2056 17.4417 0.304506C17.3842 0.403411 17.3555 0.516449 17.359 0.630798V1.28218H16.716C13.3066 1.28373 9.97904 2.32732 7.17936 4.27311C4.37968 6.21889 2.24161 8.9739 1.05165 12.1689C-0.138306 15.364 -0.323286 18.8464 0.521499 22.1495C1.36628 25.4527 3.20047 28.4187 5.77826 30.6501C5.91601 30.7688 6.07728 30.8571 6.2515 30.9091C6.42573 30.9612 6.60899 30.9759 6.78928 30.9522C6.96957 30.9285 7.14283 30.867 7.29771 30.7718C7.45259 30.6765 7.5856 30.5496 7.68803 30.3993C7.86672 30.1434 7.94456 29.8305 7.90658 29.5208C7.8686 29.211 7.71748 28.9262 7.48226 28.721C5.2936 26.8366 3.73415 24.3275 3.01344 21.5308C2.29274 18.734 2.44532 15.7837 3.45068 13.0762C4.45604 10.3688 6.26601 8.03387 8.63738 6.3853C11.0087 4.73674 13.8279 3.85349 16.716 3.85425H17.359V4.5037C17.3555 4.61805 17.3842 4.73108 17.4417 4.82999C17.4992 4.92889 17.5832 5.00971 17.6843 5.06327C17.7854 5.11683 17.8995 5.14098 18.0136 5.133C18.1277 5.12502 18.2373 5.08522 18.33 5.01811L20.9599 3.08263C21.0398 3.02273 21.1046 2.94506 21.1492 2.85578C21.1939 2.76649 21.2171 2.66804 21.2171 2.56821C21.2171 2.46839 21.1939 2.36993 21.1492 2.28065C21.1046 2.19136 21.0398 2.11369 20.9599 2.0538L18.33 0.116384Z" fill="#0054A9"/>
<path d="M24.4199 22.6935L24.4314 14.0385L17.3589 17.9982V26.6332L24.4199 22.6935Z" fill="#0054A9"/>
<path d="M9.67041 12.9402L16.716 16.8845L23.7622 12.9396L16.7295 9.00171L9.67041 12.9402ZM17.2767 10.8909C17.36 11.0397 17.3808 11.2155 17.3344 11.3796C17.2881 11.5437 17.1785 11.6827 17.0298 11.766L13.8147 13.5665C13.6662 13.6448 13.4931 13.662 13.3322 13.6144C13.1713 13.5668 13.0353 13.4581 12.9534 13.3117C12.8715 13.1652 12.8501 12.9925 12.8937 12.8305C12.9374 12.6685 13.0427 12.5299 13.1871 12.4444L16.4022 10.644C16.5509 10.5609 16.7265 10.5402 16.8905 10.5865C17.0545 10.6328 17.1934 10.7423 17.2767 10.8909Z" fill="#0054A9"/>
<path d="M16.0732 18.0008L9.01093 14.0443L9 22.6723L16.0732 26.6462V18.0008ZM11.5721 21.558C11.5721 21.7285 11.5043 21.8921 11.3837 22.0127C11.2631 22.1332 11.0996 22.201 10.9291 22.201C10.7585 22.201 10.595 22.1332 10.4744 22.0127C10.3538 21.8921 10.286 21.7285 10.286 21.558V17.3578C10.286 17.1872 10.3538 17.0237 10.4744 16.9031C10.595 16.7825 10.7585 16.7148 10.9291 16.7148C11.0996 16.7148 11.2631 16.7825 11.3837 16.9031C11.5043 17.0237 11.5721 17.1872 11.5721 17.3578V21.558Z" fill="#0054A9"/>
</svg>
