<svg width="24" height="24" viewBox="0 0 24 24" fill="none" xmlns="http://www.w3.org/2000/svg">
<g opacity="0.5" clip-path="url(#clip0_260_1350)">
<path d="M11.6808 4.79419C16.3007 4.83777 19.7147 6.7845 22.5767 9.87894C22.9835 10.3148 23.3612 10.7942 23.739 11.2736C24.0876 11.7094 24.1167 12.1598 23.768 12.6102C20.63 16.6053 16.7656 19.2639 11.4484 19.0896C7.58399 18.9588 4.47503 17.1574 1.83096 14.4552C1.2789 13.8886 0.784957 13.2639 0.276483 12.6392C-0.0721857 12.2179 -0.101241 11.7385 0.247427 11.3027C3.22563 7.46731 6.93023 4.92494 11.6808 4.79419ZM12.015 16.9249C14.7753 16.9249 16.998 14.7167 16.998 11.9709C16.998 9.21065 14.8043 6.98789 12.044 6.95884C9.26922 6.92978 7.0174 9.1816 7.03193 11.9709C7.03193 14.7458 9.24016 16.9249 12.015 16.9249Z" fill="#002B5C"/>
<path d="M8.96398 11.9854C8.94945 10.3147 10.3151 8.92004 11.9858 8.92004C13.671 8.90551 15.0511 10.2857 15.0511 11.9564C15.0511 13.598 13.7146 14.9636 12.0584 15.0072C10.4022 15.0508 8.97851 13.6561 8.96398 11.9854Z" fill="#002B5C"/>
</g>
<defs>
<clipPath id="clip0_260_1350">
<rect width="24" height="24" fill="white"/>
</clipPath>
</defs>
</svg>
