<svg width="36" height="36" viewBox="0 0 36 36" fill="none" xmlns="http://www.w3.org/2000/svg">
<path d="M8.69998 8.65002C7.49995 7.45 2.39998 7.15005 0.749953 7C0.599977 7 0.44993 7 0.299953 7.14998C0.149977 7.30002 0 7.60005 0 7.75002V21.25C0 21.7 0.300023 22 0.750023 22H5.25002C5.55005 22 5.85 21.8501 6.00005 21.55C6.00005 21.1 8.70005 13.15 9.00007 9.25007C9 9.10002 9 8.80007 8.69998 8.65002Z" fill="#0054A9"/>
<path d="M24.7501 12.2504C23.2501 11.8004 21.9001 11.2004 20.7001 10.7504C18.0001 9.55037 16.8001 10.1504 14.4001 12.5504C13.3501 13.6004 12.6001 15.1004 12.7501 15.7004C12.7501 15.8504 12.7501 15.8504 13.0501 16.0004C13.8001 16.3004 14.8501 16.4504 15.9001 14.8004C16.05 14.6504 16.2001 14.5004 16.5 14.5004C16.95 14.5004 17.1 14.3504 17.55 14.2003C17.85 14.0504 18.15 13.9003 18.6 13.7503C18.75 13.7503 18.75 13.7503 18.9 13.7503C19.05 13.7503 19.35 13.9003 19.5 13.9003C20.2501 14.6504 21.6001 15.7004 22.9501 16.9004C25.0501 18.5504 27.1501 20.3504 28.2001 21.7004H28.3501C27.3001 18.7004 25.5001 13.6004 24.7501 12.2504Z" fill="#0054A9"/>
<path d="M35.25 8.5C29.4 8.5 26.1 9.99998 25.95 9.99998C25.8 10.15 25.65 10.3 25.5 10.45C25.5 10.6 25.5 10.9 25.65 11.05C26.55 12.5499 29.55 20.8 30 22.8999C30.15 23.2 30.45 23.4999 30.75 23.4999H35.25C35.7 23.4999 36 23.1999 36 22.7499V9.24988C36 8.80002 35.7 8.5 35.25 8.5Z" fill="#0054A9"/>
<path d="M27.1502 23.2C26.5502 21.85 24.0002 19.9 21.7502 18.1C20.5503 17.05 19.3502 16.15 18.4502 15.4C18.3003 15.5499 18.0002 15.5499 18.0002 15.7C17.5502 15.85 17.4003 16 16.8002 16C15.6003 17.5 14.1002 18.1 12.4503 17.5C11.7002 17.35 11.2502 16.75 11.1003 16.15C10.8002 14.65 12.1502 12.55 13.2003 11.5H10.2003C9.60029 14.5 8.55025 18.4 7.80029 20.5C8.40027 21.1 9.00032 21.85 9.45032 22.15C12.3003 24.55 15.6003 26.95 16.2003 27.4C16.6503 27.7001 17.5503 28 18.0003 28C18.1503 28 18.3003 28 18.4503 28L16.0503 25.6C15.7502 25.3 15.7502 24.85 16.0503 24.55C16.3503 24.25 16.8003 24.25 17.1002 24.55L20.1003 27.55C20.4003 27.85 20.7002 27.7 21.0003 27.7C21.4503 27.55 21.6002 27.25 21.7503 26.8L18.3003 23.35C18.0002 23.05 18.0002 22.6 18.3003 22.3C18.6003 22 19.0503 22 19.3502 22.3L23.1002 26.05C23.2502 26.2 23.8502 26.2 24.3002 26.05C24.4502 25.9 24.7502 25.75 24.9002 25.45L20.7002 21.25C20.4002 20.9499 20.4002 20.4999 20.7002 20.2C21.0003 19.9 21.4503 19.9 21.7502 20.2L26.1002 24.55C26.4003 24.7 26.7002 24.55 27.0002 24.4C27.1502 24.25 27.4502 23.8 27.1502 23.2Z" fill="#0054A9"/>
</svg>
