<svg width="36" height="36" viewBox="0 0 36 36" fill="none" xmlns="http://www.w3.org/2000/svg">
<path d="M18.0711 3.85713C18.2416 3.85713 18.4051 3.7894 18.5256 3.66884C18.6462 3.54828 18.7139 3.38477 18.7139 3.21427V0.642854C18.7139 0.472359 18.6462 0.308846 18.5256 0.188288C18.4051 0.0677292 18.2416 0 18.0711 0C17.9006 0 17.7371 0.0677292 17.6165 0.188288C17.496 0.308846 17.4282 0.472359 17.4282 0.642854V3.21427C17.4282 3.38477 17.496 3.54828 17.6165 3.66884C17.7371 3.7894 17.9006 3.85713 18.0711 3.85713Z" fill="#0054A9"/>
<path d="M8.52586 7.43486C8.58517 7.49626 8.6561 7.54523 8.73453 7.57892C8.81296 7.61262 8.89732 7.63035 8.98267 7.63109C9.06803 7.63183 9.15268 7.61557 9.23169 7.58325C9.31069 7.55092 9.38247 7.50319 9.44283 7.44283C9.50319 7.38247 9.55092 7.31069 9.58324 7.23169C9.61557 7.15268 9.63183 7.06803 9.63109 6.98268C9.63035 6.89732 9.61262 6.81296 9.57892 6.73453C9.54523 6.6561 9.49626 6.58517 9.43486 6.52586L7.61648 4.70749C7.55718 4.64609 7.48625 4.59711 7.40781 4.56342C7.32938 4.52973 7.24503 4.512 7.15967 4.51125C7.07431 4.51051 6.98966 4.52678 6.91066 4.5591C6.83165 4.59142 6.75988 4.63916 6.69952 4.69952C6.63916 4.75988 6.59142 4.83165 6.5591 4.91066C6.52678 4.98966 6.51051 5.07431 6.51125 5.15967C6.512 5.24503 6.52973 5.32938 6.56342 5.40781C6.59711 5.48625 6.64609 5.55718 6.70749 5.61648L8.52586 7.43486Z" fill="#0054A9"/>
<path d="M5.21427 15.4282H2.64285C2.47236 15.4282 2.30885 15.496 2.18829 15.6165C2.06773 15.7371 2 15.9006 2 16.0711C2 16.2416 2.06773 16.4051 2.18829 16.5256C2.30885 16.6462 2.47236 16.7139 2.64285 16.7139H5.21427C5.38477 16.7139 5.54828 16.6462 5.66884 16.5256C5.7894 16.4051 5.85713 16.2416 5.85713 16.0711C5.85713 15.9006 5.7894 15.7371 5.66884 15.6165C5.54828 15.496 5.38477 15.4282 5.21427 15.4282Z" fill="#0054A9"/>
<path d="M8.52586 24.7078L6.70749 26.5262C6.64609 26.5855 6.59711 26.6564 6.56342 26.7348C6.52973 26.8133 6.512 26.8976 6.51125 26.983C6.51051 27.0683 6.52678 27.153 6.5591 27.232C6.59142 27.311 6.63916 27.3828 6.69952 27.4431C6.75988 27.5035 6.83165 27.5512 6.91066 27.5836C6.98966 27.6159 7.07431 27.6321 7.15967 27.6314C7.24503 27.6307 7.32938 27.6129 7.40781 27.5792C7.48625 27.5455 7.55718 27.4966 7.61648 27.4352L9.43486 25.6168C9.55196 25.4956 9.61676 25.3332 9.61529 25.1646C9.61383 24.9961 9.54622 24.8348 9.42703 24.7156C9.30784 24.5964 9.1466 24.5288 8.97805 24.5274C8.80949 24.5259 8.64711 24.5907 8.52586 24.7078Z" fill="#0054A9"/>
<path d="M28.5268 4.70749L26.7085 6.52586C26.6471 6.58517 26.5981 6.6561 26.5644 6.73453C26.5307 6.81296 26.513 6.89732 26.5122 6.98268C26.5115 7.06803 26.5278 7.15268 26.5601 7.23169C26.5924 7.31069 26.6401 7.38247 26.7005 7.44283C26.7609 7.50319 26.8326 7.55092 26.9116 7.58325C26.9906 7.61557 27.0753 7.63183 27.1606 7.63109C27.246 7.63035 27.3304 7.61262 27.4088 7.57892C27.4872 7.54523 27.5582 7.49626 27.6175 7.43486L29.4358 5.61648C29.4972 5.55718 29.5462 5.48625 29.5799 5.40781C29.6136 5.32938 29.6313 5.24503 29.6321 5.15967C29.6328 5.07431 29.6165 4.98966 29.5842 4.91066C29.5519 4.83165 29.5042 4.75988 29.4438 4.69952C29.3834 4.63916 29.3117 4.59142 29.2327 4.5591C29.1537 4.52678 29.069 4.51051 28.9837 4.51125C28.8983 4.512 28.8139 4.52973 28.7355 4.56342C28.6571 4.59711 28.5861 4.64609 28.5268 4.70749Z" fill="#0054A9"/>
<path d="M27.6173 24.7078C27.496 24.5907 27.3337 24.5259 27.1651 24.5274C26.9965 24.5288 26.8353 24.5964 26.7161 24.7156C26.5969 24.8348 26.5293 24.9961 26.5279 25.1646C26.5264 25.3332 26.5912 25.4956 26.7083 25.6168L28.5267 27.4352C28.6479 27.5523 28.8103 27.6171 28.9789 27.6156C29.1474 27.6141 29.3086 27.5465 29.4278 27.4273C29.547 27.3082 29.6146 27.1469 29.6161 26.9784C29.6176 26.8098 29.5528 26.6474 29.4357 26.5262L27.6173 24.7078Z" fill="#0054A9"/>
<path d="M33.4999 15.4282H30.9285C30.758 15.4282 30.5945 15.496 30.4739 15.6165C30.3534 15.7371 30.2856 15.9006 30.2856 16.0711C30.2856 16.2416 30.3534 16.4051 30.4739 16.5256C30.5945 16.6462 30.758 16.7139 30.9285 16.7139H33.4999C33.6704 16.7139 33.8339 16.6462 33.9545 16.5256C34.075 16.4051 34.1428 16.2416 34.1428 16.0711C34.1428 15.9006 34.075 15.7371 33.9545 15.6165C33.8339 15.496 33.6704 15.4282 33.4999 15.4282Z" fill="#0054A9"/>
<path d="M12.9282 32.1426C12.9286 32.4835 13.0641 32.8104 13.3052 33.0514C13.5462 33.2924 13.873 33.428 14.2139 33.4284H15.4996V34.7141C15.5 35.0549 15.6355 35.3818 15.8766 35.6228C16.1176 35.8639 16.4445 35.9994 16.7853 35.9998H19.3568C19.6977 35.9994 20.0245 35.8639 20.2655 35.6228C20.5066 35.3818 20.6421 35.0549 20.6425 34.7141V33.4284H21.9282C22.2691 33.428 22.5959 33.2924 22.8369 33.0514C23.078 32.8104 23.2136 32.4835 23.2139 32.1426V30.8569H12.9282V32.1426Z" fill="#0054A9"/>
<path d="M12.9282 28.2856H23.2139V29.5714H12.9282V28.2856Z" fill="#0054A9"/>
<path d="M25.3584 7.92589C24.2114 6.89171 22.8567 6.11452 21.385 5.64636C19.9133 5.1782 18.3585 5.02987 16.8248 5.21131C14.5099 5.47569 12.3402 6.47343 10.6328 8.05873C8.9253 9.64403 7.76953 11.7338 7.33432 14.0228C6.89912 16.3117 7.2073 18.6798 8.21382 20.7811C9.22034 22.8825 10.8725 24.6068 12.9288 25.7024V26.9994H17.4288V24.0513L15.6886 22.311C15.5715 22.1898 15.5067 22.0274 15.5081 21.8589C15.5096 21.6903 15.5772 21.5291 15.6964 21.4099C15.8156 21.2907 15.9768 21.2231 16.1454 21.2216C16.3139 21.2201 16.4763 21.2849 16.5976 21.402L18.0716 22.876L19.5457 21.402C19.6669 21.2849 19.8293 21.2201 19.9979 21.2216C20.1664 21.2231 20.3277 21.2907 20.4469 21.4099C20.5661 21.5291 20.6337 21.6903 20.6351 21.8589C20.6366 22.0274 20.5718 22.1898 20.4547 22.311L18.7145 24.0513V26.9994H23.2145V25.7027C24.766 24.8763 26.0951 23.6875 27.0888 22.2374C28.0824 20.7872 28.7112 19.1186 28.9217 17.3733C29.1321 15.628 28.9181 13.8578 28.2977 12.2129C27.6774 10.5681 26.669 9.09744 25.3584 7.92589Z" fill="#0054A9"/>
</svg>
