<svg width="14" height="18" viewBox="0 0 14 18" fill="none" xmlns="http://www.w3.org/2000/svg">
<path d="M7.38672 -0.000126513C7.82289 0.0263587 8.12852 0.0912795 8.49063 0.182686C10.2801 0.622138 11.6336 1.65925 12.5195 3.2694C13.3633 4.79869 13.4969 6.4194 12.9977 8.09283C12.625 9.34439 12.0766 10.5186 11.4438 11.6542C10.2168 13.8584 8.75781 15.9045 7.15821 17.8592C7.12305 17.9014 7.09844 17.9541 7.0668 18.0034C7.05625 18.0034 7.04219 18.0034 7.03164 18.0034C5.81524 16.576 4.69024 15.0819 3.67422 13.5034C2.7461 12.0655 1.91289 10.5784 1.32578 8.96119C0.935549 7.88892 0.685939 6.79557 0.805471 5.64596C0.917971 4.57018 1.27305 3.58581 1.8918 2.69987C2.68281 1.57136 3.72696 0.766278 5.03477 0.340888C5.50938 0.186201 5.92595 0.128762 6.5043 0.0315141C6.57152 0.0202109 6.59044 0.0105286 6.67656 0.00338911C6.76269 -0.00375037 7.10989 -0.0169361 7.38672 -0.000126513ZM7.01055 16.351C7.0668 16.2842 7.09141 16.2561 7.11602 16.2245C8.41328 14.544 9.61211 12.8002 10.6316 10.937C11.2152 9.87173 11.718 8.77486 12.0379 7.60064C12.3086 6.61275 12.298 5.62838 11.9746 4.66159C11.4859 3.19909 10.5297 2.13385 9.11641 1.50456C7.9 0.963153 6.64492 0.910419 5.38281 1.33581C4.1207 1.75768 3.15391 2.56276 2.5 3.7194C1.93047 4.72838 1.71602 5.81822 1.88828 6.96783C2.05703 8.09635 2.48594 9.14048 2.97813 10.16C3.64258 11.5276 4.44414 12.8108 5.31602 14.0553C5.86094 14.8182 6.43399 15.567 7.01055 16.351Z" fill="#4E6151"/>
<path d="M7.03165 8.86608C5.55509 8.86608 4.35977 7.67077 4.36329 6.19421C4.3668 4.72819 5.55157 3.54343 7.02462 3.52937C8.48712 3.51882 9.70001 4.72468 9.70001 6.19421C9.70704 7.67077 8.50821 8.86608 7.03165 8.86608ZM7.03516 4.59108C6.15274 4.59108 5.42149 5.31882 5.42149 6.19773C5.42149 7.08015 6.14923 7.80437 7.03516 7.80788C7.91759 7.80788 8.64884 7.08015 8.64884 6.20124C8.64884 5.32233 7.91759 4.59108 7.03516 4.59108Z" fill="#4E6151"/>
</svg>
