<svg width="102" height="102" viewBox="0 0 102 102" fill="none" xmlns="http://www.w3.org/2000/svg">
<g clip-path="url(#clip0_1069_6287)">
<g filter="url(#filter0_d_1069_6287)">
<path fill-rule="evenodd" clip-rule="evenodd" d="M59.2783 76.9208L53.1051 88.7527C52.2901 90.3148 50.0503 90.302 49.2533 88.7306L43.2534 76.9024L46.4728 75.2694L51.203 84.5946L56.0779 75.251L59.2783 76.9208Z" fill="#00CCFF"/>
<path d="M49.1951 16.884C49.1951 15.8872 50.0032 15.0791 51 15.0791V15.0791C51.9968 15.0791 52.8049 15.8872 52.8049 16.884V42.514C52.8049 43.5109 51.9968 44.319 51 44.319V44.319C50.0032 44.319 49.1951 43.5109 49.1951 42.514V16.884Z" fill="#0054A9"/>
<path fill-rule="evenodd" clip-rule="evenodd" d="M19.9839 52.1669C19.793 52.3214 19.642 52.5068 19.532 52.7101C19.3432 52.9954 19.2332 53.3375 19.2332 53.7053L19.2332 60.2011L19.2332 60.2029L19.2332 60.2139C19.239 61.2057 20.0449 62.0079 21.0381 62.0079C21.0458 62.0079 21.0534 62.0079 21.0611 62.0078H40.8923C41.8892 62.0078 42.6973 61.1997 42.6973 60.2029C42.6973 59.206 41.8892 58.3979 40.8923 58.3979H22.843L22.843 54.4966L42.8991 38.2555C43.6738 37.6282 43.7932 36.4916 43.1659 35.717C42.5386 34.9423 41.402 34.8228 40.6273 35.4501L19.9839 52.1669ZM58.9416 60.2029C58.9416 61.1997 59.7497 62.0078 60.7466 62.0078H80.6008C80.6615 62.0078 80.7214 62.0048 80.7806 61.999C80.8402 62.0049 80.9006 62.0079 80.9618 62.0079C81.9586 62.0079 82.7667 61.1999 82.7667 60.203V53.7053C82.7667 53.2985 82.6322 52.9231 82.4051 52.6213C82.3015 52.4547 82.1688 52.3024 82.0078 52.172L61.3569 35.4492L59.0852 38.2546L79.1569 54.5083V58.3979H60.7466C59.7497 58.3979 58.9416 59.206 58.9416 60.2029Z" fill="#0054A9"/>
<path fill-rule="evenodd" clip-rule="evenodd" d="M54.1768 65.6174L57.303 63.8125L61.1653 70.5022C61.3055 70.7451 61.3829 71.007 61.4025 71.2691C61.4454 71.4235 61.4684 71.5862 61.4684 71.7543V75.3516L61.4685 75.364L61.4684 75.3642C61.4684 75.738 61.3548 76.0853 61.1602 76.3733C60.8358 76.8534 60.2865 77.1691 59.6635 77.1691L59.6404 77.169H41.9983L41.9752 77.1691C41.2276 77.1691 40.5861 76.7145 40.3121 76.0666C40.2208 75.8507 40.1703 75.6133 40.1703 75.3642L40.1703 75.364L40.1703 75.3587V71.7543C40.1703 71.2261 40.3972 70.7509 40.7588 70.4208L44.5742 63.8125L47.7004 65.6174L43.8381 72.3071C43.8196 72.3392 43.8003 72.3704 43.7802 72.4008V73.5591H57.8586V71.9945L54.1768 65.6174Z" fill="#0054A9"/>
<path d="M49.1951 48.6516C49.1951 47.6548 50.0032 46.8467 51 46.8467C51.9968 46.8467 52.8049 47.6548 52.8049 48.6516V52.9834C52.8049 53.9803 51.9968 54.7884 51 54.7884C50.0032 54.7884 49.1951 53.9803 49.1951 52.9834V48.6516Z" fill="#0054A9"/>
<path fill-rule="evenodd" clip-rule="evenodd" d="M57.8587 18.6632C57.8316 18.3597 57.7576 17.5866 57.6319 16.6743C57.4836 15.5975 57.2877 14.5117 57.0658 13.7785C56.8668 13.1208 56.4828 12.2037 56.0783 11.3274C55.7325 10.5783 55.4244 9.97139 55.3236 9.77517C55.2273 9.6111 54.9253 9.10687 54.5236 8.53375C54.0214 7.81716 53.56 7.279 53.2761 7.04754C52.4119 6.34285 52.054 6.05454 51.7066 5.86366C51.5059 5.75337 51.3428 5.69385 51 5.69385C50.6571 5.69385 50.4941 5.75337 50.2934 5.86366C49.946 6.05454 49.588 6.34285 48.7238 7.04754C48.45 7.27082 48.0032 7.78718 47.5097 8.48623C47.1293 9.0251 46.8328 9.5113 46.7074 9.72251C46.4126 10.354 45.3371 12.7112 44.9118 14.2413C44.522 15.644 44.2267 17.9799 44.1412 18.7123V62.7297H57.8587V18.6632ZM40.5398 18.4329C40.534 18.4841 40.5314 18.5346 40.5314 18.5861V64.8956C40.5314 65.6931 41.1778 66.3395 41.9753 66.3395H60.0246C60.8221 66.3395 61.4686 65.6931 61.4686 64.8956V18.5662C61.4686 18.528 61.4672 18.4919 61.464 18.4537C61.425 17.9939 61.1348 14.7616 60.521 12.7331C59.9721 10.9191 58.6361 8.32132 58.5014 8.06142C58.4935 8.04612 58.4871 8.03432 58.4785 8.01939C58.3353 7.77113 56.932 5.37079 55.5574 4.2499C55.5068 4.20864 55.4567 4.16773 55.4071 4.1272C53.959 2.94458 52.9052 2.08398 51 2.08398C49.0947 2.08398 48.0409 2.94458 46.5928 4.1272C46.5432 4.16773 46.4931 4.20864 46.4425 4.2499C45.102 5.34302 43.7342 7.65299 43.5344 7.99703C43.5171 8.02689 43.5028 8.05427 43.4881 8.08549C43.3038 8.47565 41.9811 11.3056 41.4338 13.2746C40.9285 15.0925 40.5958 17.9344 40.5398 18.4329Z" fill="#0054A9"/>
<path fill-rule="evenodd" clip-rule="evenodd" d="M42.3363 37.46L27.3554 47.9286L21.2187 54.2458L19.9552 60.9241H43.4193L42.3363 37.46ZM61.041 37.46L75.1 47.9286L80.8591 54.2458L82.0448 60.9241H60.0247L61.041 37.46Z" fill="#0054A9" fill-opacity="0.3"/>
</g>
</g>
<defs>
<filter id="filter0_d_1069_6287" x="8.23315" y="-4.91602" width="85.5336" height="109.833" filterUnits="userSpaceOnUse" color-interpolation-filters="sRGB">
<feFlood flood-opacity="0" result="BackgroundImageFix"/>
<feColorMatrix in="SourceAlpha" type="matrix" values="0 0 0 0 0 0 0 0 0 0 0 0 0 0 0 0 0 0 127 0" result="hardAlpha"/>
<feOffset dy="4"/>
<feGaussianBlur stdDeviation="5.5"/>
<feComposite in2="hardAlpha" operator="out"/>
<feColorMatrix type="matrix" values="0 0 0 0 0.0901961 0 0 0 0 0.290196 0 0 0 0 0.247192 0 0 0 0.4 0"/>
<feBlend mode="normal" in2="BackgroundImageFix" result="effect1_dropShadow_1069_6287"/>
<feBlend mode="normal" in="SourceGraphic" in2="effect1_dropShadow_1069_6287" result="shape"/>
</filter>
<clipPath id="clip0_1069_6287">
<rect width="102" height="102" fill="white"/>
</clipPath>
</defs>
</svg>
