<svg width="36" height="35" viewBox="0 0 36 35" fill="none" xmlns="http://www.w3.org/2000/svg">
<path d="M35.6909 24.0321L32.2799 20.6208L25.2237 27.6771C23.9641 28.9367 22.3832 29.7579 20.666 30.0652L25.1619 34.5611C25.5736 34.9731 26.2416 34.9731 26.6533 34.5611L35.6909 25.5238C36.1029 25.1118 36.1029 24.4438 35.6909 24.0321Z" fill="#0054A9"/>
<path d="M30.8905 19.0274C32.0795 17.8387 32.0798 15.9043 30.8922 14.7147C30.8908 14.7134 30.8894 14.712 30.8881 14.7106C30.5942 14.417 30.2509 14.1907 29.877 14.0393C30.2011 13.2195 30.2695 11.833 29.1959 10.7591C29.1931 10.7564 29.1904 10.7533 29.1874 10.7506C28.8949 10.46 28.5537 10.2359 28.1824 10.0854C28.5065 9.26606 28.5752 7.87931 27.5021 6.80595C27.5013 6.80512 27.5007 6.80457 27.5002 6.80402C27.206 6.50986 26.8624 6.283 26.488 6.13166C26.8121 5.31181 26.8805 3.92506 25.8069 2.85114C25.8066 2.85114 25.8066 2.85087 25.8063 2.85087C25.8061 2.85059 25.8058 2.85032 25.8055 2.85004C24.616 1.6605 22.6807 1.6605 21.4912 2.85004L19.4914 4.84956L20.5139 5.87211C22.2179 7.57609 22.2179 10.3485 20.5142 12.0525C19.9407 12.6257 19.2362 13.0195 18.4683 13.2071C18.2845 13.9558 17.9011 14.6656 17.3169 15.2495C16.7443 15.8222 16.0409 16.2157 15.2737 16.4036C15.0862 17.1704 14.6923 17.8741 14.1199 18.4465C13.5472 19.0192 12.8438 19.4128 12.0767 19.6006C11.8891 20.3675 11.4953 21.0711 10.9229 21.6438C10.0975 22.4689 9 22.9237 7.8327 22.9237C6.66541 22.9237 5.56787 22.4692 4.74252 21.6435L3.71997 20.621L0.30899 24.0322C-0.102997 24.4442 -0.102997 25.1119 0.30899 25.5239L9.34634 34.5613C9.75833 34.9732 10.426 34.973 10.838 34.5613L17.3073 28.0922H19.1299C20.8685 28.0922 22.503 27.4149 23.7324 26.1858L30.8905 19.0274Z" fill="#0054A9"/>
<path d="M6.2339 20.1522C7.11665 21.0352 8.54817 21.0352 9.43092 20.1522C10.3139 19.2695 10.3139 17.8382 9.43092 16.9552C10.3139 17.8382 11.7452 17.8382 12.6282 16.9552C13.511 16.0724 13.511 14.6409 12.6282 13.7582C13.511 14.6409 14.9425 14.6409 15.8252 13.7582C16.708 12.8754 16.708 11.4439 15.8252 10.5611C16.708 11.4439 18.1395 11.4439 19.0223 10.5611C19.9053 9.67812 19.9053 8.24687 19.0223 7.36385L14.5146 2.85616C13.6318 1.9734 12.2003 1.9734 11.3176 2.85616C10.4348 3.73891 10.4348 5.17043 11.3176 6.05318L11.8822 6.61815C10.9995 5.73512 9.56798 5.73512 8.68523 6.61815C7.80247 7.5009 7.80247 8.93242 8.68523 9.81517L9.8149 10.9448C8.93214 10.0621 7.50063 10.0621 6.61787 10.9448C5.73485 11.8276 5.73485 13.2591 6.61787 14.1419L7.74754 15.2718C6.86452 14.3888 5.43327 14.3888 4.55025 15.2718C3.6675 16.1546 3.6675 17.5858 4.55025 18.4688L6.2339 20.1522Z" fill="#0054A9"/>
<path d="M19.9993 1.35842C20.1553 1.20241 20.3204 1.05904 20.4921 0.925829L19.8752 0.308946C19.5544 -0.012129 19.0636 -0.0915052 18.6579 0.111193L16.0547 1.4128L17.9998 3.3582L19.9993 1.35842Z" fill="#0054A9"/>
</svg>
