<?xml version="1.0" encoding="UTF-8"?>
<svg width="34px" height="279px" viewBox="0 0 34 279" version="1.1" xmlns="http://www.w3.org/2000/svg" xmlns:xlink="http://www.w3.org/1999/xlink">
    <!-- Generator: Sketch 54.1 (76490) - https://sketchapp.com -->
    <title>Group</title>
    <desc>Created with Sketch.</desc>
    <defs>
        <linearGradient x1="50%" y1="-27.6820592%" x2="50%" y2="100%" id="linearGradient-1">
            <stop stop-color="#FFFFFF" offset="0%"></stop>
            <stop stop-color="#FFFFFF" stop-opacity="0" offset="100%"></stop>
        </linearGradient>
        <polygon id="path-2" points="3 246.448 31 246.448 31 2.27373675e-13 3 2.27373675e-13"></polygon>
    </defs>
    <g id="desktop" stroke="none" stroke-width="1" fill="none" fill-rule="evenodd">
        <g id="biden-about" transform="translate(-663.000000, -546.000000)">
            <g id="Group" transform="translate(663.000000, 546.000000)">
                <polygon id="Triangle" fill="url(#linearGradient-1)" opacity="0.727327009" points="17 223 34 279 0 279"></polygon>
                <rect id="Rectangle" fill-opacity="0.2" fill="#000000" x="6" y="4" width="22" height="219" rx="11"></rect>
                <polygon id="Fill-1" fill="#12204A" points="14.227 63.823 19.896 63.823 19.896 62.777 14.227 62.777"></polygon>
                <polygon id="Fill-2" fill="#12204A" points="14.227 123.224 19.896 123.224 19.896 122.179 14.227 122.179"></polygon>
                <path d="M31,120.0881 C31,121.2421 30.063,122.1791 28.909,122.1791 L5.215,122.1791 C4.061,122.1791 3.125,121.2421 3.125,120.0881 L3.125,65.9141 C3.125,64.7591 4.061,63.8231 5.215,63.8231 L28.909,63.8231 C30.063,63.8231 31,64.7591 31,65.9141 L31,120.0881 Z" id="Fill-3" fill="#97BDFB"></path>
                <mask id="mask-3" fill="white">
                    <use xlink:href="#path-2"></use>
                </mask>
                <g id="Clip-6"></g>
                <polygon id="Fill-5" fill="#6FA3E2" points="8.149 122.179 25.977 122.179 25.977 63.824 8.149 63.824"></polygon>
                <path d="M21.7539,76.3674 C21.7539,75.6154 21.1449,75.0064 20.3919,75.0064 C19.9679,75.0064 19.5869,74.7714 19.2929,74.4674 C18.7289,73.8824 17.9389,73.5174 17.0629,73.5174 C16.1859,73.5174 15.3969,73.8824 14.8319,74.4674 C14.5379,74.7714 14.1559,75.0064 13.7329,75.0064 C12.9809,75.0064 12.3709,75.6154 12.3709,76.3674 L12.3709,76.8864 C12.3709,77.6384 12.9809,78.2474 13.7329,78.2474 C14.1559,78.2474 14.5379,78.4824 14.8319,78.7874 C15.3969,79.3714 16.1859,79.7344 17.0629,79.7344 C17.9389,79.7344 18.7289,79.3714 19.2929,78.7874 C19.5869,78.4824 19.9679,78.2474 20.3919,78.2474 C21.1449,78.2474 21.7539,77.6384 21.7539,76.8864 L21.7539,76.3674 Z" id="Fill-7" fill="#4F8BC6"></path>
                <path d="M21.7539,84.5627 C21.7539,83.8107 21.1449,83.2017 20.3919,83.2017 C19.9679,83.2017 19.5869,82.9667 19.2929,82.6627 C18.7289,82.0777 17.9389,81.7137 17.0629,81.7137 C16.1859,81.7137 15.3969,82.0777 14.8319,82.6627 C14.5379,82.9667 14.1559,83.2017 13.7329,83.2017 C12.9809,83.2017 12.3709,83.8107 12.3709,84.5627 L12.3709,85.0817 C12.3709,85.8337 12.9809,86.4437 13.7329,86.4437 C14.1559,86.4437 14.5379,86.6777 14.8319,86.9827 C15.3969,87.5667 16.1859,87.9307 17.0629,87.9307 C17.9389,87.9307 18.7289,87.5667 19.2929,86.9827 C19.5869,86.6777 19.9679,86.4437 20.3919,86.4437 C21.1449,86.4437 21.7539,85.8337 21.7539,85.0817 L21.7539,84.5627 Z" id="Fill-8" fill="#4F8BC6"></path>
                <path d="M21.7539,103.7776 C21.7539,103.0256 21.1449,102.4156 20.3919,102.4156 C19.9679,102.4156 19.5869,102.1806 19.2929,101.8766 C18.7289,101.2926 17.9389,100.9276 17.0629,100.9276 C16.1859,100.9276 15.3969,101.2926 14.8319,101.8766 C14.5379,102.1806 14.1559,102.4156 13.7329,102.4156 C12.9809,102.4156 12.3709,103.0256 12.3709,103.7776 L12.3709,104.2956 C12.3709,105.0476 12.9809,105.6576 13.7329,105.6576 C14.1559,105.6576 14.5379,105.8916 14.8319,106.1966 C15.3969,106.7806 16.1859,107.1446 17.0629,107.1446 C17.9389,107.1446 18.7289,106.7806 19.2929,106.1966 C19.5869,105.8916 19.9679,105.6576 20.3919,105.6576 C21.1449,105.6576 21.7539,105.0476 21.7539,104.2956 L21.7539,103.7776 Z" id="Fill-9" fill="#4F8BC6"></path>
                <path d="M21.7539,111.9729 C21.7539,111.2209 21.1449,110.6119 20.3919,110.6119 C19.9679,110.6119 19.5869,110.3759 19.2929,110.0719 C18.7289,109.4879 17.9389,109.1229 17.0629,109.1229 C16.1859,109.1229 15.3969,109.4879 14.8319,110.0719 C14.5379,110.3759 14.1559,110.6119 13.7329,110.6119 C12.9809,110.6119 12.3709,111.2209 12.3709,111.9729 L12.3709,112.4919 C12.3709,113.2439 12.9809,113.8529 13.7329,113.8529 C14.1559,113.8529 14.5379,114.0869 14.8319,114.3919 C15.3969,114.9769 16.1859,115.3399 17.0629,115.3399 C17.9389,115.3399 18.7289,114.9769 19.2929,114.3919 C19.5869,114.0869 19.9679,113.8529 20.3919,113.8529 C21.1449,113.8529 21.7539,113.2439 21.7539,112.4919 L21.7539,111.9729 Z" id="Fill-10" fill="#4F8BC6"></path>
                <polygon id="Fill-11" fill="#12204A" points="14.227 124.27 19.896 124.27 19.896 123.224 14.227 123.224"></polygon>
                <polygon id="Fill-12" fill="#12204A" points="14.227 183.67 19.896 183.67 19.896 182.625 14.227 182.625"></polygon>
                <path d="M31,180.5344 C31,181.6884 30.063,182.6254 28.909,182.6254 L5.215,182.6254 C4.061,182.6254 3.125,181.6884 3.125,180.5344 L3.125,126.3604 C3.125,125.2054 4.061,124.2694 5.215,124.2694 L28.909,124.2694 C30.063,124.2694 31,125.2054 31,126.3604 L31,180.5344 Z" id="Fill-13" fill="#97BDFB"></path>
                <polygon id="Fill-14" fill="#6FA3E2" points="8.149 182.625 25.977 182.625 25.977 124.27 8.149 124.27"></polygon>
                <path d="M21.7539,136.8137 C21.7539,136.0617 21.1449,135.4527 20.3919,135.4527 C19.9679,135.4527 19.5869,135.2177 19.2929,134.9127 C18.7289,134.3287 17.9389,133.9637 17.0629,133.9637 C16.1859,133.9637 15.3969,134.3287 14.8319,134.9127 C14.5379,135.2177 14.1559,135.4527 13.7329,135.4527 C12.9809,135.4527 12.3709,136.0617 12.3709,136.8137 L12.3709,137.3327 C12.3709,138.0847 12.9809,138.6937 13.7329,138.6937 C14.1559,138.6937 14.5379,138.9277 14.8319,139.2327 C15.3969,139.8177 16.1859,140.1807 17.0629,140.1807 C17.9389,140.1807 18.7289,139.8177 19.2929,139.2327 C19.5869,138.9277 19.9679,138.6937 20.3919,138.6937 C21.1449,138.6937 21.7539,138.0847 21.7539,137.3327 L21.7539,136.8137 Z" id="Fill-15" fill="#4F8BC6"></path>
                <path d="M21.7539,145.009 C21.7539,144.257 21.1449,143.648 20.3919,143.648 C19.9679,143.648 19.5869,143.413 19.2929,143.109 C18.7289,142.524 17.9389,142.159 17.0629,142.159 C16.1859,142.159 15.3969,142.524 14.8319,143.109 C14.5379,143.413 14.1559,143.648 13.7329,143.648 C12.9809,143.648 12.3709,144.257 12.3709,145.009 L12.3709,145.528 C12.3709,146.28 12.9809,146.889 13.7329,146.889 C14.1559,146.889 14.5379,147.124 14.8319,147.429 C15.3969,148.013 16.1859,148.377 17.0629,148.377 C17.9389,148.377 18.7289,148.013 19.2929,147.429 C19.5869,147.124 19.9679,146.889 20.3919,146.889 C21.1449,146.889 21.7539,146.28 21.7539,145.528 L21.7539,145.009 Z" id="Fill-16" fill="#4F8BC6"></path>
                <path d="M21.7539,164.2229 C21.7539,163.4709 21.1449,162.8619 20.3919,162.8619 C19.9679,162.8619 19.5869,162.6269 19.2929,162.3229 C18.7289,161.7379 17.9389,161.3739 17.0629,161.3739 C16.1859,161.3739 15.3969,161.7379 14.8319,162.3229 C14.5379,162.6269 14.1559,162.8619 13.7329,162.8619 C12.9809,162.8619 12.3709,163.4709 12.3709,164.2229 L12.3709,164.7419 C12.3709,165.4939 12.9809,166.1039 13.7329,166.1039 C14.1559,166.1039 14.5379,166.3379 14.8319,166.6429 C15.3969,167.2269 16.1859,167.5909 17.0629,167.5909 C17.9389,167.5909 18.7289,167.2269 19.2929,166.6429 C19.5869,166.3379 19.9679,166.1039 20.3919,166.1039 C21.1449,166.1039 21.7539,165.4939 21.7539,164.7419 L21.7539,164.2229 Z" id="Fill-17" fill="#4F8BC6"></path>
                <path d="M21.7539,172.4192 C21.7539,171.6672 21.1449,171.0572 20.3919,171.0572 C19.9679,171.0572 19.5869,170.8222 19.2929,170.5182 C18.7289,169.9342 17.9389,169.5692 17.0629,169.5692 C16.1859,169.5692 15.3969,169.9342 14.8319,170.5182 C14.5379,170.8222 14.1559,171.0572 13.7329,171.0572 C12.9809,171.0572 12.3709,171.6672 12.3709,172.4192 L12.3709,172.9372 C12.3709,173.6892 12.9809,174.2992 13.7329,174.2992 C14.1559,174.2992 14.5379,174.5332 14.8319,174.8382 C15.3969,175.4222 16.1859,175.7862 17.0629,175.7862 C17.9389,175.7862 18.7289,175.4222 19.2929,174.8382 C19.5869,174.5332 19.9679,174.2992 20.3919,174.2992 C21.1449,174.2992 21.7539,173.6892 21.7539,172.9372 L21.7539,172.4192 Z" id="Fill-18" fill="#4F8BC6"></path>
                <polygon id="Fill-19" fill="#12204A" points="14.227 62.778 19.896 62.778 19.896 61.733 14.227 61.733"></polygon>
                <path d="M30.875,59.6418 C30.875,60.7958 29.939,61.7328 28.785,61.7328 L5.091,61.7328 C3.936,61.7328 3,60.7958 3,59.6418 L3,31.5748 C3,31.4678 3.002,31.3608 3.006,31.2528 C3.01,31.1448 3.017,31.0378 3.024,30.9328 L3.64,22.9268 C3.66,22.6838 3.683,22.4408 3.71,22.1948 C3.737,21.9488 3.769,21.7058 3.805,21.4658 L6.178,5.4458 C6.376,4.1088 7.024,2.8288 8.189,2.1448 C13.071,-0.7262 20.889,-0.7142 25.746,2.1798 C26.888,2.8608 27.503,4.1308 27.697,5.4458 L30.07,21.4658 C30.106,21.7058 30.139,21.9488 30.166,22.1948 C30.193,22.4408 30.216,22.6838 30.235,22.9258 L30.851,30.9328 C30.859,31.0378 30.865,31.1448 30.869,31.2528 C30.873,31.3608 30.875,31.4678 30.875,31.5748 L30.875,59.6418 Z" id="Fill-20" fill="#ED1C24"></path>
                <path d="M8.1895,10.7493 C13.0715,7.8783 20.8885,7.8903 25.7465,10.7843 C26.3365,11.1373 26.7835,11.6473 27.1055,12.2403 C27.1575,12.3373 27.3005,12.2763 27.2845,12.1683 L26.6935,8.1803 C26.6265,7.7323 26.4485,7.2933 26.0925,7.0133 C25.9835,6.9273 25.8685,6.8473 25.7465,6.7743 C20.8885,3.8793 13.0715,3.8673 8.1895,6.7383 C8.0585,6.8163 7.9335,6.9013 7.8165,6.9943 C7.4475,7.2853 7.2485,7.7333 7.1795,8.1983 L6.5885,12.1863 C6.5725,12.2973 6.7245,12.3393 6.7775,12.2413 C7.1125,11.6323 7.5785,11.1073 8.1895,10.7493" id="Fill-21" fill="#12204A"></path>
                <path d="M30.8506,39.3772 L30.2356,31.3712 C30.2156,31.1292 30.1936,30.8862 30.1656,30.6402 C30.1386,30.3942 30.1066,30.1502 30.0706,29.9102 L27.6976,13.8912 C27.5026,12.5752 26.8876,11.3062 25.7466,10.6252 C20.8886,7.7312 13.0716,7.7192 8.1896,10.5902 C7.0236,11.2742 6.3756,12.5542 6.1786,13.8912 L3.8056,29.9102 C3.7686,30.1502 3.7366,30.3942 3.7096,30.6402 C3.6826,30.8862 3.6596,31.1292 3.6406,31.3712 L3.0246,39.3772 C3.0176,39.4822 3.0106,39.5902 3.0066,39.6982 C3.0016,39.8062 2.9996,39.9122 2.9996,40.0192 L2.9996,59.6422 C2.9996,60.7962 3.9356,61.7322 5.0906,61.7322 L28.7856,61.7322 C29.9396,61.7322 30.8746,60.7962 30.8746,59.6422 L30.8746,40.0192 C30.8746,39.9122 30.8726,39.8062 30.8696,39.6982 C30.8656,39.5902 30.8596,39.4832 30.8506,39.3772" id="Fill-22" fill="#97BDFB"></path>
                <path d="M25.7461,10.6252 C20.8891,7.7302 13.0711,7.7192 8.1891,10.5902 C8.1761,10.5982 8.1631,10.6092 8.1481,10.6182 L8.1481,61.7322 L25.9761,61.7322 L25.9761,10.7852 C25.9001,10.7312 25.8281,10.6732 25.7461,10.6252" id="Fill-23" fill="#6FA3E2"></path>
                <path d="M21.7539,21.2444 C21.7539,22.0154 21.1289,22.6394 20.3599,22.6394 L13.7639,22.6394 C12.9949,22.6394 12.3709,22.0154 12.3709,21.2444 L12.3709,16.0914 C12.3709,15.3214 12.9949,14.6974 13.7639,14.6974 L20.3599,14.6974 C21.1289,14.6974 21.7539,15.3214 21.7539,16.0914 L21.7539,21.2444 Z" id="Fill-24" fill="#4F8BC6"></path>
                <path d="M15.5962,30.2561 C15.5962,31.1471 14.8732,31.8681 13.9832,31.8681 C13.0932,31.8681 12.3702,31.1471 12.3702,30.2561 C12.3702,29.3651 13.0932,28.6431 13.9832,28.6431 C14.8732,28.6431 15.5962,29.3651 15.5962,30.2561" id="Fill-25" fill="#4F8BC6"></path>
                <path d="M21.7539,30.2561 C21.7539,31.1471 21.0309,31.8681 20.1409,31.8681 C19.2509,31.8681 18.5279,31.1471 18.5279,30.2561 C18.5279,29.3651 19.2509,28.6431 20.1409,28.6431 C21.0309,28.6431 21.7539,29.3651 21.7539,30.2561" id="Fill-26" fill="#4F8BC6"></path>
                <path d="M20.3125,52.886 L13.8115,52.886 C13.0195,52.886 12.3705,52.237 12.3705,51.445 L12.3705,39.233 C12.3705,38.44 13.0195,37.791 13.8115,37.791 L20.3125,37.791 C21.1055,37.791 21.7535,38.44 21.7535,39.233 L21.7535,51.445 C21.7535,52.237 21.1055,52.886 20.3125,52.886" id="Fill-27" fill="#4F8BC6"></path>
                <polygon id="Fill-28" fill="#12204A" points="14.227 184.715 19.896 184.715 19.896 183.67 14.227 183.67"></polygon>
                <path d="M30.875,186.8059 C30.875,185.6519 29.939,184.7149 28.785,184.7149 L5.091,184.7149 C3.936,184.7149 3,185.6519 3,186.8059 L3,214.8739 C3,214.9809 3.002,215.0869 3.006,215.1959 C3.01,215.3029 3.017,215.4099 3.024,215.5159 L3.64,223.5219 C3.66,223.7639 3.683,224.0079 3.71,224.2539 C3.737,224.4989 3.769,224.7429 3.805,224.9829 L6.178,241.0029 C6.376,242.3399 7.024,243.6189 8.189,244.3029 C13.071,247.1749 20.889,247.1619 25.746,244.2679 C26.888,243.5869 27.503,242.3179 27.697,241.0029 L30.07,224.9829 C30.106,224.7429 30.139,224.4989 30.166,224.2539 C30.193,224.0079 30.216,223.7639 30.235,223.5219 L30.851,215.5159 C30.859,215.4099 30.865,215.3029 30.869,215.1959 C30.873,215.0869 30.875,214.9809 30.875,214.8739 L30.875,186.8059 Z" id="Fill-29" fill="#ED1C24"></path>
                <path d="M8.1895,235.6994 C13.0715,238.5704 20.8885,238.5584 25.7465,235.6634 C26.3365,235.3114 26.7835,234.8004 27.1055,234.2074 C27.1575,234.1114 27.3005,234.1714 27.2845,234.2794 L26.6935,238.2674 C26.6265,238.7164 26.4485,239.1544 26.0925,239.4344 C25.9835,239.5204 25.8685,239.6004 25.7465,239.6744 C20.8885,242.5684 13.0715,242.5804 8.1895,239.7094 C8.0585,239.6324 7.9335,239.5464 7.8165,239.4534 C7.4475,239.1634 7.2485,238.7144 7.1795,238.2494 L6.5885,234.2624 C6.5725,234.1504 6.7245,234.1084 6.7775,234.2074 C7.1125,234.8164 7.5785,235.3404 8.1895,235.6994" id="Fill-30" fill="#12204A"></path>
                <path d="M30.8506,207.0705 L30.2356,215.0775 C30.2156,215.3185 30.1936,215.5625 30.1656,215.8085 C30.1386,216.0535 30.1066,216.2975 30.0706,216.5375 L27.6976,232.5575 C27.5026,233.8725 26.8876,235.1425 25.7466,235.8235 C20.8886,238.7175 13.0716,238.7295 8.1896,235.8585 C7.0236,235.1735 6.3756,233.8945 6.1786,232.5575 L3.8056,216.5375 C3.7686,216.2975 3.7366,216.0535 3.7096,215.8085 C3.6826,215.5625 3.6596,215.3185 3.6406,215.0765 L3.0246,207.0705 C3.0176,206.9655 3.0106,206.8585 3.0066,206.7505 C3.0016,206.6415 2.9996,206.5355 2.9996,206.4285 L2.9996,186.8055 C2.9996,185.6515 3.9356,184.7155 5.0906,184.7155 L28.7856,184.7155 C29.9396,184.7155 30.8746,185.6515 30.8746,186.8055 L30.8746,206.4285 C30.8746,206.5355 30.8726,206.6415 30.8696,206.7505 C30.8656,206.8575 30.8596,206.9655 30.8506,207.0705" id="Fill-31" fill="#97BDFB"></path>
                <path d="M25.7461,235.8235 C20.8891,238.7185 13.0711,238.7295 8.1891,235.8585 C8.1761,235.8495 8.1631,235.8395 8.1481,235.8305 L8.1481,184.7155 L25.9761,184.7155 L25.9761,235.6625 C25.9001,235.7175 25.8281,235.7745 25.7461,235.8235" id="Fill-32" fill="#6FA3E2"></path>
                <path d="M21.7539,225.2034 C21.7539,224.4334 21.1289,223.8094 20.3599,223.8094 L13.7639,223.8094 C12.9949,223.8094 12.3709,224.4334 12.3709,225.2034 L12.3709,230.3574 C12.3709,231.1274 12.9949,231.7514 13.7639,231.7514 L20.3599,231.7514 C21.1289,231.7514 21.7539,231.1274 21.7539,230.3574 L21.7539,225.2034 Z" id="Fill-33" fill="#4F8BC6"></path>
                <path d="M15.5962,216.1926 C15.5962,215.3016 14.8732,214.5806 13.9832,214.5806 C13.0932,214.5806 12.3702,215.3016 12.3702,216.1926 C12.3702,217.0836 13.0932,217.8046 13.9832,217.8046 C14.8732,217.8046 15.5962,217.0836 15.5962,216.1926" id="Fill-34" fill="#4F8BC6"></path>
                <path d="M21.7539,216.1926 C21.7539,215.3016 21.0309,214.5806 20.1409,214.5806 C19.2509,214.5806 18.5279,215.3016 18.5279,216.1926 C18.5279,217.0836 19.2509,217.8046 20.1409,217.8046 C21.0309,217.8046 21.7539,217.0836 21.7539,216.1926" id="Fill-35" fill="#4F8BC6"></path>
                <path d="M20.3125,193.5627 L13.8115,193.5627 C13.0195,193.5627 12.3705,194.2107 12.3705,195.0037 L12.3705,207.2157 C12.3705,208.0087 13.0195,208.6577 13.8115,208.6577 L20.3125,208.6577 C21.1055,208.6577 21.7535,208.0087 21.7535,207.2157 L21.7535,195.0037 C21.7535,194.2107 21.1055,193.5627 20.3125,193.5627" id="Fill-36" fill="#4F8BC6"></path>
            </g>
        </g>
    </g>
</svg>