<svg width="36" height="36" viewBox="0 0 36 36" fill="none" xmlns="http://www.w3.org/2000/svg">
<path d="M26.6895 10.5517C28.7463 10.5517 30.4136 8.88432 30.4136 6.82753C30.4136 4.77075 28.7463 3.10339 26.6895 3.10339C24.6327 3.10339 22.9653 4.77075 22.9653 6.82753C22.9653 8.88432 24.6327 10.5517 26.6895 10.5517Z" fill="#0054A9"/>
<path d="M21.3022 31.2392L21.1036 30.0909C21.0835 29.9708 21.0284 29.8592 20.9454 29.7701C20.8623 29.681 20.7548 29.6183 20.6364 29.5898C20.5179 29.5614 20.3937 29.5684 20.2792 29.61C20.1647 29.6517 20.065 29.7261 19.9925 29.824L18.6891 31.6551C18.5936 31.7878 18.5543 31.953 18.5799 32.1145C18.6055 32.2761 18.6938 32.421 18.8256 32.5178L20.638 33.8337C20.7388 33.9093 20.8601 33.9524 20.9859 33.9574C21.1118 33.9624 21.2361 33.9291 21.3425 33.8617C21.449 33.7944 21.5324 33.6962 21.5817 33.5804C21.631 33.4645 21.6439 33.3364 21.6187 33.213L21.5008 32.4744C24.1575 31.8313 26.586 30.4696 28.5205 28.5384C30.4549 26.6072 31.8208 24.181 32.4684 21.5254L33.3932 21.7116C33.5118 21.7308 33.6333 21.7153 33.7432 21.6668C33.8531 21.6183 33.9465 21.539 34.0122 21.4385C34.0779 21.338 34.113 21.2206 34.1133 21.1005C34.1136 20.9804 34.0791 20.8628 34.0139 20.762L32.7725 18.8999C32.6815 18.7638 32.5404 18.6692 32.38 18.6367C32.2196 18.6041 32.0528 18.6363 31.916 18.7261L30.0539 19.9675C29.9479 20.0352 29.865 20.1336 29.8161 20.2495C29.7673 20.3655 29.7548 20.4935 29.7804 20.6167C29.806 20.7399 29.8684 20.8524 29.9594 20.9393C30.0503 21.0262 30.1655 21.0834 30.2898 21.1033L31.2518 21.2957C30.6517 23.7 29.4086 25.8955 27.6559 27.6472C25.9031 29.3988 23.7068 30.6405 21.3022 31.2392Z" fill="#0054A9"/>
<path d="M26.6897 0C24.8483 0 23.0483 0.546042 21.5172 1.56908C19.9861 2.59211 18.7928 4.04619 18.0881 5.74743C17.3834 7.44867 17.1991 9.32067 17.5583 11.1267C17.9175 12.9327 18.8043 14.5917 20.1063 15.8938C21.4084 17.1958 23.0674 18.0826 24.8734 18.4418C26.6794 18.801 28.5514 18.6167 30.2527 17.912C31.9539 17.2073 33.408 16.014 34.431 14.4829C35.454 12.9518 36.0001 11.1518 36.0001 9.31035C36.0001 6.84109 35.0192 4.47297 33.2732 2.72694C31.5271 0.980909 29.159 0 26.6897 0ZM32.0773 15.3C31.7538 14.1192 31.0513 13.0775 30.0778 12.3349C29.1044 11.5924 27.914 11.1901 26.6897 11.1901C25.4654 11.1901 24.275 11.5924 23.3016 12.3349C22.3282 13.0775 21.6257 14.1192 21.3022 15.3C20.0863 14.2095 19.23 12.7757 18.8465 11.1882C18.4629 9.60066 18.5701 7.9341 19.1539 6.40879C19.7377 4.88348 20.7707 3.57124 22.1162 2.64553C23.4618 1.71981 25.0565 1.2242 26.6897 1.2242C28.323 1.2242 29.9177 1.71981 31.2633 2.64553C32.6088 3.57124 33.6417 4.88348 34.2256 6.40879C34.8094 7.9341 34.9166 9.60066 34.533 11.1882C34.1495 12.7757 33.2932 14.2095 32.0773 15.3Z" fill="#0054A9"/>
<path d="M9.31056 27.9309C11.3673 27.9309 13.0347 26.2636 13.0347 24.2068C13.0347 22.15 11.3673 20.4827 9.31056 20.4827C7.25378 20.4827 5.58643 22.15 5.58643 24.2068C5.58643 26.2636 7.25378 27.9309 9.31056 27.9309Z" fill="#0054A9"/>
<path d="M3.20892 17.0998C3.29993 17.2359 3.441 17.3305 3.60142 17.3631C3.76184 17.3956 3.92863 17.3635 4.06547 17.2736L5.92754 16.0323C6.03333 15.9658 6.1166 15.8689 6.16645 15.7544C6.2163 15.6398 6.23041 15.5128 6.20694 15.3901C6.18347 15.2674 6.12351 15.1546 6.0349 15.0665C5.94629 14.9784 5.83316 14.9191 5.7103 14.8964L4.74823 14.704C5.34884 12.3044 6.58999 10.113 8.33912 8.36384C10.0882 6.61471 12.2796 5.37356 14.6793 4.77295L14.8655 5.92123C14.8856 6.04138 14.9406 6.15297 15.0237 6.24207C15.1068 6.33118 15.2142 6.39386 15.3327 6.42232C15.4511 6.45078 15.5753 6.44374 15.6898 6.4021C15.8043 6.36045 15.904 6.28604 15.9765 6.18812L17.311 4.34468C17.4065 4.21189 17.4457 4.04677 17.4202 3.88521C17.3946 3.72365 17.3063 3.57872 17.1744 3.48192L15.362 2.18468C15.2613 2.10909 15.14 2.06592 15.0141 2.06092C14.8883 2.05591 14.7639 2.0893 14.6575 2.15664C14.5511 2.22399 14.4677 2.32211 14.4184 2.43798C14.369 2.55385 14.3561 2.68198 14.3813 2.80536L14.4993 3.54399C11.8449 4.1856 9.41797 5.5445 7.48372 7.47219C5.54946 9.39987 4.18231 11.8222 3.53168 14.4743L2.60685 14.2757C2.48831 14.2565 2.36674 14.272 2.25687 14.3205C2.147 14.369 2.05355 14.4483 1.98785 14.5488C1.92215 14.6493 1.88702 14.7667 1.88672 14.8868C1.88642 15.0069 1.92096 15.1245 1.98616 15.2254L3.20892 17.0998Z" fill="#0054A9"/>
<path d="M9.31035 35.9998C11.1518 35.9998 12.9518 35.4538 14.4829 34.4308C16.014 33.4077 17.2073 31.9537 17.912 30.2524C18.6167 28.5512 18.801 26.6792 18.4418 24.8731C18.0826 23.0671 17.1958 21.4082 15.8938 20.1061C14.5917 18.804 12.9327 17.9173 11.1267 17.5581C9.32067 17.1988 7.44867 17.3832 5.74743 18.0879C4.04619 18.7925 2.59211 19.9859 1.56908 21.5169C0.546042 23.048 0 24.8481 0 26.6895C0 29.1588 0.980909 31.5269 2.72694 33.2729C4.47297 35.0189 6.84109 35.9998 9.31035 35.9998ZM9.31035 18.6205C10.9397 18.6244 12.5298 19.1214 13.8713 20.0463C15.2128 20.9712 16.2428 22.2805 16.8259 23.802C17.409 25.3235 17.5178 26.9859 17.1379 28.5704C16.7581 30.155 15.9075 31.5874 14.6979 32.6792C14.3744 31.4984 13.6719 30.4566 12.6984 29.7141C11.725 28.9715 10.5346 28.5693 9.31035 28.5693C8.08605 28.5693 6.89565 28.9715 5.92224 29.7141C4.94883 30.4566 4.24632 31.4984 3.92276 32.6792C2.71323 31.5874 1.86259 30.155 1.48275 28.5704C1.10292 26.9859 1.2117 25.3235 1.79477 23.802C2.37785 22.2805 3.40791 20.9712 4.74939 20.0463C6.09088 19.1214 7.68094 18.6244 9.31035 18.6205Z" fill="#0054A9"/>
</svg>
