<svg width="36" height="24" viewBox="0 0 36 24" fill="none" xmlns="http://www.w3.org/2000/svg">
<path d="M17.9998 10.9566C21.0253 10.9566 23.478 8.50385 23.478 5.47828C23.478 2.45271 21.0253 0 17.9998 0C14.9742 0 12.5215 2.45271 12.5215 5.47828C12.5215 8.50385 14.9742 10.9566 17.9998 10.9566Z" fill="#0054A9"/>
<path d="M28.9565 14.0868C31.1176 14.0868 32.8695 12.3349 32.8695 10.1738C32.8695 8.01266 31.1176 6.26074 28.9565 6.26074C26.7954 6.26074 25.0435 8.01266 25.0435 10.1738C25.0435 12.3349 26.7954 14.0868 28.9565 14.0868Z" fill="#0054A9"/>
<path d="M7.15471 14.0868C9.31581 14.0868 11.0677 12.3349 11.0677 10.1738C11.0677 8.01266 9.31581 6.26074 7.15471 6.26074C4.99362 6.26074 3.2417 8.01266 3.2417 10.1738C3.2417 12.3349 4.99362 14.0868 7.15471 14.0868Z" fill="#0054A9"/>
<path d="M17.9996 12.522C12.3899 12.522 7.82568 17.0861 7.82568 22.6959C7.82568 23.1279 8.17632 23.4785 8.60832 23.4785H27.3909C27.8229 23.4785 28.1735 23.1279 28.1735 22.6959C28.1735 17.0861 23.6094 12.522 17.9996 12.522Z" fill="#0054A9"/>
<path d="M8.50382 15.8214C8.02486 15.7196 7.53805 15.6523 7.04347 15.6523C3.16017 15.6523 0 18.8125 0 22.6958C0 23.1278 0.350633 23.4784 0.782632 23.4784H6.40486C6.31719 23.2327 6.26084 22.9713 6.26084 22.6958C6.26084 20.1273 7.09982 17.756 8.50382 15.8214Z" fill="#0054A9"/>
<path d="M28.9569 15.6523C28.4623 15.6523 27.9755 15.7196 27.4966 15.8214C28.9006 17.756 29.7396 20.1273 29.7396 22.6958C29.7396 22.9713 29.6832 23.2327 29.5955 23.4784H35.2178C35.6498 23.4784 36.0004 23.1278 36.0004 22.6958C36.0004 18.8125 32.8402 15.6523 28.9569 15.6523Z" fill="#0054A9"/>
</svg>
